<?xml version="1.0" encoding="utf-8"?>
<!-- Generator: Adobe Illustrator 23.0.1, SVG Export Plug-In . SVG Version: 6.00 Build 0)  -->
<svg version="1.1" id="Шар_1" xmlns="http://www.w3.org/2000/svg" xmlns:xlink="http://www.w3.org/1999/xlink" x="0px" y="0px"
	 viewBox="0 0 249.8 354.3" style="enable-background:new 0 0 249.8 354.3;" xml:space="preserve">
<style type="text/css">
	.st0{fill:#FF0000;}
</style>
<title>Ресурс 1</title>
<g>
	<g id="Шар_1-2">
		<g id="Шар_1-2-2">
			<path class="st0" d="M0.3,234.2v-41.4h29.8V219l32,24.4v-78H0.5V35.3h249.3v67.8h-29.7V65.5H30.7v69.4h31.8V99.5h125.1v36h62.2
				v98.8l-124.7,95L0.3,234.2z M125.1,244l-32.4-24.6v47.4l32.4,24.7l94.5-72v-53.6h-31.7v30.3L125.1,244z M157.6,129.8H92.7v51.7
				l32.4,24.7l32.4-24.8L157.6,129.8L157.6,129.8z"/>
		</g>
		<g>
			<path class="st0" d="M18.6,8.4c-0.2-0.2-0.5-0.4-0.8-0.6c-0.6-0.3-1.1-0.6-1.7-0.9c-0.7-0.3-1.5-0.6-2.3-0.9
				c-0.8-0.2-1.7-0.3-2.5-0.3C8.9,5.7,7.8,6.5,7.8,8c0,0.4,0.1,0.8,0.4,1.2c0.2,0.3,0.6,0.6,1,0.8c0.6,0.3,1.2,0.5,1.8,0.7l2.5,0.7
				c1.2,0.3,2.4,0.7,3.6,1.2c1,0.4,1.9,0.9,2.7,1.6c0.7,0.6,1.3,1.4,1.7,2.3c0.4,1,0.6,2.2,0.6,3.3c0.1,1.4-0.3,2.8-0.9,4
				c-0.6,1-1.3,1.9-2.3,2.6s-2.1,1.2-3.3,1.5c-1.3,0.3-2.6,0.5-3.9,0.5c-1,0-2.1-0.1-3.1-0.2c-1.1-0.1-2.1-0.4-3.1-0.7
				c-1-0.3-2-0.7-3-1.1c-0.9-0.4-1.8-0.9-2.6-1.5l2.8-5.6c0.3,0.3,0.6,0.5,1,0.7c0.7,0.4,1.4,0.8,2.2,1.1c0.9,0.4,1.9,0.7,2.8,1
				c1,0.3,2.1,0.4,3.2,0.4c2.3,0,3.4-0.7,3.4-2.1c0-0.5-0.2-0.9-0.5-1.3c-0.4-0.4-0.9-0.7-1.4-0.9c-0.7-0.3-1.4-0.6-2.1-0.8
				l-2.7-0.8c-1.2-0.3-2.3-0.8-3.4-1.3C4.5,15,3.7,14.5,3,13.8c-0.6-0.6-1.1-1.3-1.4-2.1C1.3,10.9,1.2,9.9,1.2,9
				c0-1.3,0.3-2.6,0.8-3.8c0.5-1.1,1.3-2.1,2.2-2.8c1-0.8,2.1-1.4,3.3-1.7C8.7,0.2,10.1,0,11.4,0c1,0,1.9,0.1,2.8,0.3S16,0.7,16.9,1
				c0.8,0.3,1.6,0.6,2.4,1s1.4,0.7,2,1.1L18.6,8.4z"/>
			<path class="st0" d="M47,5.8h-8.4v22.1h-6.4V5.8h-8.5V0.2H47V5.8z"/>
			<path class="st0" d="M69.6,22.3v5.6H50.2V0.2h19.1v5.6H56.5v5.4h10.9v5.2H56.5v5.9H69.6z"/>
			<path class="st0" d="M73.5,27.9V0.2h11.8c1.3,0,2.5,0.3,3.7,0.8c1.1,0.5,2,1.3,2.8,2.2s1.4,1.9,1.9,3c0.4,1.1,0.7,2.2,0.7,3.4
				s-0.2,2.4-0.6,3.5s-1,2.1-1.8,3s-1.7,1.6-2.8,2.1C88,18.7,86.8,19,85.5,19h-5.6v8.9H73.5z M79.9,13.4h5.2c0.8,0,1.5-0.4,2-1
				c0.6-0.8,0.9-1.8,0.8-2.9c0-0.6-0.1-1.1-0.3-1.7c-0.2-0.4-0.4-0.8-0.7-1.1c-0.3-0.3-0.6-0.5-1-0.7c-0.3-0.1-0.7-0.2-1.1-0.2h-5
				L79.9,13.4L79.9,13.4z"/>
			<path class="st0" d="M97.8,27.9V0.2h12.5c1.3,0,2.5,0.3,3.6,0.8s2.1,1.3,2.9,2.2s1.5,1.9,1.9,3s0.7,2.2,0.7,3.4
				c0,0.8-0.1,1.7-0.3,2.5c-0.2,0.8-0.5,1.5-0.9,2.2s-0.9,1.3-1.4,1.9c-0.6,0.6-1.2,1-1.9,1.4l6.1,10.3h-7.2l-5.3-8.9h-4.2v8.9
				L97.8,27.9z M104.2,13.4h5.8c0.8,0,1.6-0.4,2-1.1c0.6-0.8,0.9-1.8,0.8-2.8c0-1-0.3-2-0.9-2.7c-0.5-0.6-1.2-1-2-1h-5.7L104.2,13.4
				z"/>
			<path class="st0" d="M136.1,28.2c-1.9,0-3.9-0.4-5.6-1.2c-1.6-0.8-3.1-1.9-4.3-3.2c-1.2-1.3-2.1-2.8-2.8-4.5
				c-2.8-7,0.4-14.9,7.3-18c1.7-0.8,3.6-1.2,5.5-1.2s3.9,0.4,5.6,1.2c1.6,0.8,3.1,1.8,4.3,3.2c1.2,1.3,2.1,2.9,2.8,4.5
				c0.6,1.6,1,3.4,1,5.1c0,1.8-0.3,3.6-1,5.3c-1.3,3.4-4,6.1-7.3,7.6C139.9,27.8,138,28.2,136.1,28.2z M128.9,14.2
				c0,1.1,0.2,2.1,0.5,3.1s0.8,1.9,1.4,2.7c0.6,0.8,1.4,1.4,2.3,1.8c1,0.5,2,0.7,3.1,0.7s2.2-0.2,3.2-0.7c0.9-0.5,1.7-1.1,2.3-1.9
				s1.1-1.7,1.3-2.7c0.3-1,0.5-2,0.4-3.1c0-1.1-0.2-2.1-0.5-3.1s-0.8-1.9-1.4-2.6c-0.6-0.8-1.4-1.4-2.3-1.8c-1-0.5-2-0.7-3.1-0.7
				s-2.2,0.2-3.2,0.7c-0.9,0.5-1.6,1.1-2.3,1.9c-0.6,0.8-1.1,1.7-1.4,2.7C129,12.1,128.9,13.1,128.9,14.2L128.9,14.2z"/>
			<path class="st0" d="M174.7,5.8h-8.4v22.1h-6.4V5.8h-8.5V0.2h23.3L174.7,5.8L174.7,5.8z"/>
			<path class="st0" d="M197.3,22.3v5.6h-19.5V0.2h19.1v5.6h-12.7v5.4h10.9v5.2h-10.9v5.9H197.3z"/>
			<path class="st0" d="M199.6,13.8c0-1.7,0.3-3.4,0.9-5c0.6-1.6,1.5-3.1,2.7-4.4s2.7-2.4,4.4-3.2c1.8-0.8,3.8-1.2,5.9-1.2
				c2.4-0.1,4.7,0.5,6.8,1.7c1.8,1,3.3,2.5,4.3,4.4l-4.9,3.4c-0.3-0.7-0.7-1.3-1.2-1.8s-1-0.9-1.6-1.2c-0.6-0.3-1.2-0.5-1.8-0.6
				s-1.2-0.2-1.8-0.2c-1.1,0-2.2,0.2-3.2,0.7c-0.9,0.5-1.6,1.1-2.3,1.9c-0.6,0.8-1.1,1.7-1.3,2.7c-0.3,1-0.4,2-0.4,3
				c0,1.1,0.2,2.1,0.5,3.2c0.3,1,0.8,1.9,1.5,2.6c0.6,0.8,1.4,1.4,2.3,1.9c0.9,0.5,2,0.7,3,0.7c0.6,0,1.2-0.1,1.8-0.2
				s1.2-0.4,1.8-0.7c0.6-0.3,1.1-0.7,1.5-1.2c0.5-0.5,0.9-1.1,1.1-1.8l5.2,3.1c-0.4,1-1,2-1.9,2.7c-0.8,0.8-1.8,1.5-2.8,2
				c-1.1,0.6-2.2,1-3.4,1.3c-1.1,0.3-2.3,0.4-3.5,0.4c-1.9,0-3.8-0.4-5.5-1.2c-1.6-0.8-3.1-1.9-4.3-3.3s-2.2-2.9-2.8-4.6
				C199.9,17.4,199.5,15.6,199.6,13.8z"/>
			<path class="st0" d="M249.1,5.8h-8.4v22.1h-6.4V5.8h-8.5V0.2h23.3L249.1,5.8L249.1,5.8z"/>
		</g>
		<g>
			<path class="st0" d="M0.6,345c0-1.1,0.2-2.2,0.6-3.2c0.4-1.1,1-2,1.8-2.9s1.8-1.6,2.8-2.1c1.2-0.6,2.5-0.8,3.8-0.8
				c1.5,0,3.1,0.3,4.4,1.1c1.2,0.7,2.2,1.7,2.8,2.9l-3.2,2.2c-0.2-0.5-0.4-0.9-0.8-1.2c-0.3-0.3-0.6-0.6-1-0.8
				c-0.4-0.2-0.7-0.3-1.1-0.4c-0.4-0.1-0.8-0.1-1.1-0.1c-0.7,0-1.4,0.1-2.1,0.5c-0.6,0.3-1.1,0.7-1.5,1.3c-0.4,0.5-0.7,1.1-0.9,1.7
				c-0.2,0.7-0.3,1.3-0.3,2s0.1,1.4,0.3,2.1c0.2,0.6,0.6,1.2,1,1.8c0.4,0.5,0.9,0.9,1.5,1.2c0.6,0.3,1.3,0.5,2,0.4
				c0.4,0,0.8,0,1.2-0.1s0.8-0.2,1.1-0.4c0.4-0.2,0.7-0.5,1-0.8s0.6-0.7,0.7-1.2l3.4,2c-0.3,0.7-0.7,1.3-1.2,1.8
				c-0.6,0.5-1.2,1-1.9,1.3c-0.7,0.4-1.4,0.6-2.2,0.8c-0.7,0.2-1.5,0.3-2.3,0.3c-1.2,0-2.5-0.3-3.6-0.8s-2-1.2-2.8-2.1
				s-1.4-1.9-1.8-3C0.8,347.3,0.6,346.2,0.6,345z"/>
			<path class="st0" d="M23.4,347.7l8.5-11.6H35v18h-4.2v-11.2l-8.4,11.3h-3.2v-18h4.2C23.4,336.2,23.4,347.7,23.4,347.7z"/>
			<path class="st0" d="M37.5,345c0-1.1,0.2-2.2,0.6-3.2c0.4-1.1,1-2,1.8-2.9c1.7-1.9,4.1-2.9,6.7-2.9c1.5,0,3.1,0.3,4.4,1.1
				c1.2,0.7,2.2,1.7,2.8,2.9l-3.2,2.2c-0.2-0.4-0.4-0.8-0.8-1.2c-0.3-0.3-0.6-0.6-1-0.8c-0.4-0.2-0.7-0.3-1.1-0.4
				c-0.4-0.1-0.8-0.1-1.1-0.1c-0.7,0-1.4,0.1-2.1,0.5c-0.6,0.3-1.1,0.7-1.5,1.3c-0.4,0.5-0.7,1.1-0.9,1.7s-0.3,1.3-0.3,2
				s0.1,1.4,0.3,2.1c0.2,0.6,0.5,1.2,0.9,1.7s0.9,0.9,1.5,1.2c0.6,0.3,1.3,0.5,2,0.4c0.4,0,0.8,0,1.2-0.1s0.8-0.2,1.1-0.4
				c0.4-0.2,0.7-0.5,1-0.8s0.6-0.7,0.7-1.2l3.4,2c-0.3,0.7-0.7,1.3-1.2,1.8s-1.2,1-1.8,1.3c-0.7,0.4-1.4,0.6-2.2,0.8
				c-0.7,0.2-1.5,0.3-2.3,0.3c-1.2,0-2.5-0.3-3.6-0.8s-2-1.3-2.8-2.1c-0.8-0.9-1.4-1.9-1.8-3C37.7,347.3,37.5,346.2,37.5,345z"/>
			<path class="st0" d="M69.8,339.8h-5.5v14.4h-4.2v-14.4h-5.5v-3.7h15.2V339.8z"/>
			<path class="st0" d="M84.5,350.5v3.7H71.9v-18h12.4v3.7H76v3.5h7.1v3.4H76v3.8L84.5,350.5z"/>
			<path class="st0" d="M101.4,354.2v-10.8l-3.9,7.9h-2.2l-3.9-7.9v10.8h-4.2v-18h4.5l4.7,9.4l4.7-9.4h4.5v18H101.4z"/>
			<path class="st0" d="M113.4,347.7l8.5-11.6h3.1v18h-4.2v-11.2l-8.4,11.3h-3.2v-18h4.2V347.7z"/>
			<path class="st0" d="M134.5,336.1H148v3.7h-9.3v3.5h4.3c1.6-0.1,3.3,0.4,4.6,1.4c1.1,1,1.7,2.5,1.6,4c0.1,1.5-0.5,3-1.6,4.1
				c-1.2,1-2.8,1.6-4.4,1.5h-8.7L134.5,336.1z M142.7,350.7c0.6,0,1.2-0.2,1.7-0.5c0.8-0.9,0.8-2.1,0-3c-0.5-0.4-1.1-0.6-1.7-0.6
				h-4.1v4.1H142.7z"/>
			<path class="st0" d="M164.3,350.5v3.7h-12.7v-18H164v3.7h-8.3v3.5h7.1v3.4h-7.1v3.8L164.3,350.5z"/>
			<path class="st0" d="M165.8,338.6c0.8-0.8,1.7-1.5,2.8-1.9c1.2-0.5,2.4-0.7,3.6-0.6c1.5-0.1,3,0.3,4.2,1.2
				c1.1,0.8,1.7,2.1,1.6,3.5c0,0.8-0.2,1.6-0.6,2.4c-0.5,0.8-1.2,1.4-2.1,1.6c1,0.2,1.9,0.8,2.6,1.6c0.6,0.8,0.9,1.8,0.9,2.8
				c0,0.8-0.2,1.6-0.5,2.3c-0.3,0.7-0.8,1.2-1.4,1.7c-0.6,0.5-1.4,0.8-2.1,1c-2.1,0.5-4.2,0.5-6.3-0.3c-1.1-0.4-2.1-1.1-2.9-1.9
				l2.1-3.1c0.6,0.5,1.2,1,1.9,1.3s1.6,0.5,2.4,0.5c0.7,0,1.3-0.2,1.9-0.6c0.5-0.4,0.8-1.1,0.8-1.7s-0.2-1.2-0.7-1.6
				c-0.6-0.5-1.4-0.7-2.3-0.7h-2.2v-2.9h1.9c0.8,0.1,1.5-0.1,2.2-0.5c0.5-0.3,0.8-0.9,0.7-1.5c0-0.5-0.2-0.9-0.5-1.3
				c-0.5-0.3-1.1-0.5-1.6-0.5c-0.7,0-1.5,0.1-2.2,0.4s-1.3,0.7-1.8,1.3L165.8,338.6z"/>
			<path class="st0" d="M181.3,336.1h15.2v18h-4.2v-14.3h-6.8v14.4h-4.2V336.1z"/>
			<path class="st0" d="M212.7,350.5v3.7H200v-18h12.4v3.7h-8.3v3.5h7.1v3.4h-7.1v3.8L212.7,350.5z"/>
			<path class="st0" d="M219.5,343.3h0.9l5.3-7.2h4.7l-6.5,8.7l7.1,9.3h-4.6l-5.5-7.1h-1.3v7.1h-4.2v-18h4.2L219.5,343.3
				L219.5,343.3z"/>
			<path class="st0" d="M236.5,347.7l8.5-11.6h3.1v18H244v-11.2l-8.4,11.3h-3.2v-18h4.2L236.5,347.7z"/>
		</g>
	</g>
</g>
</svg>
