<svg xmlns="http://www.w3.org/2000/svg" viewBox="0 0 1174.44 300"><defs><style>.cls-1{fill:#c7cace;}.cls-2{isolation:isolate;}</style></defs><title>hlogo_v_1.5_g</title><g id="Шар_2" data-name="Шар 2"><g id="Шар_1-2" data-name="Шар 1"><g id="Шар_1-2-2" data-name="Шар 1-2"><path class="cls-1" d="M0,203V160.71H30.41v26.74l32.65,24.9V132.76H.2V0H254.59V69.18h-30.3V30.82H31v70.81H63.47V65.51H191.12v36.73h63.47V203.06L127.35,300Zm127.35,10-33.06-25.1v48.36l33.06,25.21L223.78,188V133.27H191.43v30.91ZM160.51,96.43H94.29v52.75l33.06,25.21,33.06-25.31.1-52.65Z"/></g><g class="cls-2"><path class="cls-1" d="M351.56,100.75a81.73,81.73,0,0,0-9.3-4.8,85.09,85.09,0,0,0-9.08-3.38A32.71,32.71,0,0,0,323.36,91a13.67,13.67,0,0,0-6.23,1.2,4.19,4.19,0,0,0-2.32,4,4.67,4.67,0,0,0,1.35,3.45,12.79,12.79,0,0,0,3.9,2.47,48.8,48.8,0,0,0,6.22,2.18q3.68,1.05,8.33,2.55a109,109,0,0,1,13.27,4.95A41.22,41.22,0,0,1,358,118.22a24.55,24.55,0,0,1,6.45,8.93,32.32,32.32,0,0,1,2.25,12.75q0,9.6-3.53,16.12a28.92,28.92,0,0,1-9.3,10.43,39.27,39.27,0,0,1-13.05,5.62,63.15,63.15,0,0,1-14.62,1.73,82.83,82.83,0,0,1-12-.9A104.21,104.21,0,0,1,302,170.35a107,107,0,0,1-11.7-3.9,74.72,74.72,0,0,1-10.42-5.1l12.6-25.65a88.33,88.33,0,0,0,11,5.85,77.57,77.57,0,0,0,10.87,4,43.37,43.37,0,0,0,12.38,1.8q4.8,0,6.67-1.28a3.9,3.9,0,0,0,1.88-3.37,4.84,4.84,0,0,0-1.88-3.83,17.12,17.12,0,0,0-5.17-2.77q-3.3-1.2-7.58-2.4t-9.07-2.85a78.44,78.44,0,0,1-12.15-5.18,33,33,0,0,1-8.4-6.3,22.5,22.5,0,0,1-4.88-8,31.27,31.27,0,0,1-1.57-10.35,35.79,35.79,0,0,1,3.22-15.6,32,32,0,0,1,8.78-11.25,39.24,39.24,0,0,1,12.67-6.83,48.32,48.32,0,0,1,15.08-2.32,57.24,57.24,0,0,1,11.4,1.12A91.06,91.06,0,0,1,346.38,69a102.91,102.91,0,0,1,9.68,3.75q4.5,2,8.1,3.83Z"/><path class="cls-1" d="M455.06,91.45h-30.6v81H395.21v-81H364.46V66h90.6Z"/><path class="cls-1" d="M534.1,147v25.5H458.21V66h74.54v25.5H487.46v15h38.7v23.7h-38.7V147Z"/><path class="cls-1" d="M540.25,172.45V66h45.9a32.35,32.35,0,0,1,14.4,3.22,37.4,37.4,0,0,1,11.33,8.4,39.22,39.22,0,0,1,7.42,11.85,35.57,35.57,0,0,1,2.7,13.43,39.08,39.08,0,0,1-9.67,25.57,33.92,33.92,0,0,1-11.1,8.25,33.2,33.2,0,0,1-14.33,3.08H569.5v32.7Zm29.25-58.2H585a6.88,6.88,0,0,0,5-2.48q2.32-2.47,2.32-8.92,0-6.6-2.7-9a8.18,8.18,0,0,0-5.4-2.4H569.5Z"/><path class="cls-1" d="M626.2,172.45V66h48.9a32.35,32.35,0,0,1,14.4,3.22,37.52,37.52,0,0,1,11.33,8.4,39.41,39.41,0,0,1,7.42,11.85,35.57,35.57,0,0,1,2.7,13.43,37.89,37.89,0,0,1-4.05,17.32,35.34,35.34,0,0,1-11.25,13.13l22.5,39.15h-33l-18.75-32.7H655.45v32.7Zm29.25-58.2H673.9q2.7,0,5-3t2.33-8.4q0-5.55-2.7-8.48t-5.4-2.92h-17.7Z"/><path class="cls-1" d="M768,173.35a51.23,51.23,0,0,1-22.05-4.65A54.57,54.57,0,0,1,729,156.47a55.37,55.37,0,0,1-11-17.32,53.65,53.65,0,0,1-3.9-20.1,52.29,52.29,0,0,1,4-20.25,53.78,53.78,0,0,1,11.32-17.18,55.22,55.22,0,0,1,17.25-11.85,53.24,53.24,0,0,1,21.83-4.42A51.23,51.23,0,0,1,790.6,70a54,54,0,0,1,16.95,12.3,55.18,55.18,0,0,1,10.87,17.4,54.19,54.19,0,0,1,3.83,20,51.72,51.72,0,0,1-4,20.17A54.64,54.64,0,0,1,807,156.92a55.37,55.37,0,0,1-17.18,11.93A52.43,52.43,0,0,1,768,173.35Zm-24.15-54a36.22,36.22,0,0,0,1.5,10.42,27.31,27.31,0,0,0,4.5,8.93,22.71,22.71,0,0,0,7.57,6.3,25.63,25.63,0,0,0,21.83-.08,22.15,22.15,0,0,0,7.57-6.45,27.73,27.73,0,0,0,4.35-9.07,38.29,38.29,0,0,0,1.43-10.35,36.28,36.28,0,0,0-1.5-10.43,25.69,25.69,0,0,0-4.58-8.85,23.1,23.1,0,0,0-7.65-6.15,25.89,25.89,0,0,0-21.6.08,22.33,22.33,0,0,0-7.57,6.37,27,27,0,0,0-4.43,9A37.51,37.51,0,0,0,743.8,119.35Z"/><path class="cls-1" d="M910.15,91.45h-30.6v81H850.3v-81H819.55V66h90.6Z"/><path class="cls-1" d="M989.2,147v25.5H913.3V66h74.55v25.5h-45.3v15h38.7v23.7h-38.7V147Z"/><path class="cls-1" d="M989.5,118.3a52.57,52.57,0,0,1,3.67-19.2,52,52,0,0,1,10.73-16.95A53.51,53.51,0,0,1,1044,65.35q15.43,0,26.77,6.37A41.62,41.62,0,0,1,1087.6,88.6l-22.35,15.9a19,19,0,0,0-4-6.45,20.22,20.22,0,0,0-5.48-4,23.42,23.42,0,0,0-6.22-2.1,34.06,34.06,0,0,0-6.22-.6,21.83,21.83,0,0,0-18.38,8.92,27.86,27.86,0,0,0-4.35,9,36.45,36.45,0,0,0-1.42,10,34.09,34.09,0,0,0,1.65,10.65,27.4,27.4,0,0,0,4.8,9,23.44,23.44,0,0,0,7.72,6.22,22.35,22.35,0,0,0,10.28,2.33,29.23,29.23,0,0,0,6.14-.68,22.78,22.78,0,0,0,6.08-2.25,20.51,20.51,0,0,0,5.25-4.05,17.76,17.76,0,0,0,3.67-6.07l23.86,14.25a30.5,30.5,0,0,1-7.28,10.5,46.18,46.18,0,0,1-11.1,7.8,58.85,58.85,0,0,1-13.35,4.8,61.45,61.45,0,0,1-13.88,1.65,49.34,49.34,0,0,1-21.67-4.73,55,55,0,0,1-17-12.52,56.79,56.79,0,0,1-11-17.7A54.22,54.22,0,0,1,989.5,118.3Z"/><path class="cls-1" d="M1174.44,91.45h-30.6v81h-29.25v-81h-30.75V66h90.6Z"/></g><g class="cls-2"><path class="cls-1" d="M279.73,215.67a17.49,17.49,0,0,1,1.23-6.4,17.23,17.23,0,0,1,3.57-5.65,18.52,18.52,0,0,1,5.7-4.05,19.72,19.72,0,0,1,16.58.58,13.88,13.88,0,0,1,5.62,5.62l-7.45,5.3a6.31,6.31,0,0,0-1.32-2.15,7,7,0,0,0-1.83-1.35,8.29,8.29,0,0,0-2.07-.7,11.7,11.7,0,0,0-2.08-.2,7.3,7.3,0,0,0-6.12,3,9.09,9.09,0,0,0-1.45,3,12,12,0,0,0-.48,3.32,11.32,11.32,0,0,0,.55,3.55,9.19,9.19,0,0,0,1.6,3,7.82,7.82,0,0,0,2.58,2.08,7.36,7.36,0,0,0,3.42.77,9.73,9.73,0,0,0,2.05-.22,7.66,7.66,0,0,0,2-.75,6.89,6.89,0,0,0,1.75-1.35,6.11,6.11,0,0,0,1.22-2l7.95,4.75a10.07,10.07,0,0,1-2.42,3.5,15.4,15.4,0,0,1-3.7,2.6,19.47,19.47,0,0,1-4.45,1.6,20.37,20.37,0,0,1-4.63.55,16.43,16.43,0,0,1-7.22-1.57,18.12,18.12,0,0,1-5.65-4.18,18.91,18.91,0,0,1-3.68-5.9A18.06,18.06,0,0,1,279.73,215.67Z"/><path class="cls-1" d="M355,218.52l15.1-20.3h7.1v35.5h-9.75V214l-15,19.7h-7.25v-35.5H355Z"/><path class="cls-1" d="M410.43,215.67a17.49,17.49,0,0,1,1.23-6.4,17.23,17.23,0,0,1,3.57-5.65,18.52,18.52,0,0,1,5.7-4.05,19.72,19.72,0,0,1,16.58.58,13.88,13.88,0,0,1,5.62,5.62l-7.45,5.3a6.31,6.31,0,0,0-1.32-2.15,7,7,0,0,0-1.83-1.35,8.29,8.29,0,0,0-2.07-.7,11.7,11.7,0,0,0-2.08-.2,7.3,7.3,0,0,0-6.12,3,9.09,9.09,0,0,0-1.45,3,12,12,0,0,0-.48,3.32,11.32,11.32,0,0,0,.55,3.55,9.19,9.19,0,0,0,1.6,3,7.82,7.82,0,0,0,2.58,2.08,7.36,7.36,0,0,0,3.42.77,9.73,9.73,0,0,0,2-.22,7.66,7.66,0,0,0,2-.75,6.89,6.89,0,0,0,1.75-1.35,6.11,6.11,0,0,0,1.22-2l8,4.75a10.07,10.07,0,0,1-2.42,3.5,15.4,15.4,0,0,1-3.7,2.6,19.47,19.47,0,0,1-4.45,1.6,20.37,20.37,0,0,1-4.63.55,16.43,16.43,0,0,1-7.22-1.57,18.12,18.12,0,0,1-5.65-4.18,18.91,18.91,0,0,1-3.68-5.9A18.06,18.06,0,0,1,410.43,215.67Z"/><path class="cls-1" d="M503.43,206.72h-10.2v27h-9.75v-27H473.23v-8.5h30.2Z"/><path class="cls-1" d="M561.33,225.22v8.5H536v-35.5h24.85v8.5h-15.1v5h12.9v7.9h-12.9v5.6Z"/><path class="cls-1" d="M621.78,233.72V215l-5.95,13.15h-5.2l-6-13.15v18.7h-9.75v-35.5h10.65l7.65,16.7,7.7-16.7h10.6v35.5Z"/><path class="cls-1" d="M676.63,218.52l15.1-20.3h7.1v35.5h-9.75V214l-15,19.7h-7.25v-35.5h9.75Z"/><path class="cls-1" d="M774.28,198.22h27.15v8.5H784V212h7.3q6.4,0,9.65,2.83a9.8,9.8,0,0,1,3.25,7.82q0,5.2-3.1,8.15t-9.3,2.95H774.28Zm16.15,27.3a4.39,4.39,0,0,0,2.87-.8,2.81,2.81,0,0,0,0-4.27,4.18,4.18,0,0,0-2.87-.88H784v6Z"/><path class="cls-1" d="M862.48,225.22v8.5h-25.3v-35.5H862v8.5h-15.1v5h12.9v7.9h-12.9v5.6Z"/><path class="cls-1" d="M894,203.22a19.39,19.39,0,0,1,6-4,20.21,20.21,0,0,1,7.78-1.38,18.29,18.29,0,0,1,4.87.6,11,11,0,0,1,3.73,1.78,8,8,0,0,1,2.4,2.95,9.26,9.26,0,0,1,.85,4.07,11.6,11.6,0,0,1-.23,2.28,6.87,6.87,0,0,1-.82,2.15,7.37,7.37,0,0,1-1.63,1.9,8.89,8.89,0,0,1-2.57,1.47,8.69,8.69,0,0,1,4.9,3.23,9.09,9.09,0,0,1,1.6,5.37,9.45,9.45,0,0,1-1,4.5,9.08,9.08,0,0,1-2.85,3.25,12.85,12.85,0,0,1-4.3,2,20.8,20.8,0,0,1-5.37.65,21.3,21.3,0,0,1-13.9-4.55l4.45-7.45a17.77,17.77,0,0,0,4,2.4,12.23,12.23,0,0,0,4.85.9,5.14,5.14,0,0,0,3-.85,3.12,3.12,0,0,0,1.2-2.75,4.56,4.56,0,0,0-.2-1.3,2.82,2.82,0,0,0-.7-1.15,3.63,3.63,0,0,0-1.3-.8,5.92,5.92,0,0,0-2-.3h-5v-6.4h4.1a6.45,6.45,0,0,0,3.65-.8,2.57,2.57,0,0,0,1.15-2.25,2.65,2.65,0,0,0-.78-2A4.14,4.14,0,0,0,907,206a10.76,10.76,0,0,0-4.33.85,16.48,16.48,0,0,0-3.82,2.45Z"/><path class="cls-1" d="M954.23,198.22h30.45v35.5h-9.75v-27H964v27h-9.75Z"/><path class="cls-1" d="M1045.33,225.22v8.5H1020v-35.5h24.85v8.5h-15.1v5h12.9v7.9h-12.9v5.6Z"/><path class="cls-1" d="M1088.63,211.77h.75l9.8-13.55h11l-12.85,17.15,14,18.35h-10.85l-10.25-13.1h-1.6v13.1h-9.7v-35.5h9.7Z"/><path class="cls-1" d="M1152,218.52l15.1-20.3h7.1v35.5h-9.75V214l-15,19.7h-7.25v-35.5H1152Z"/></g></g></g></svg>