<?xml version="1.0" encoding="utf-8"?>
<!-- Generator: Adobe Illustrator 23.0.1, SVG Export Plug-In . SVG Version: 6.00 Build 0)  -->
<svg version="1.1" id="Шар_1" xmlns="http://www.w3.org/2000/svg" xmlns:xlink="http://www.w3.org/1999/xlink" x="0px" y="0px"
	 viewBox="0 0 249.5 353.7" style="enable-background:new 0 0 249.5 353.7;" xml:space="preserve">
<style type="text/css">
	.st0{fill:#FF0000;}
</style>
<title>logo_vr_1_7</title>
<g>
	<g id="Шар_1-2">
		<g id="Шар_1-2-2">
			<path class="st0" d="M0,233.8v-41.4h29.8v26.2l32,24.4v-78H0.2V34.9h249.3v67.8h-29.7V65.1H30.4v69.4h31.8V99.1h125.1v36h62.2
				v98.8l-124.7,95L0,233.8z M124.8,243.6L92.4,219v47.4l32.4,24.7l94.5-72v-53.6h-31.7v30.3L124.8,243.6z M157.3,129.4H92.4v51.7
				l32.4,24.7l32.4-24.8L157.3,129.4L157.3,129.4z"/>
		</g>
		<path class="st0" d="M19.3,8.4c-0.2-0.2-0.5-0.4-0.8-0.6c-0.6-0.3-1.2-0.6-1.8-0.9c-0.7-0.3-1.5-0.6-2.3-0.9
			c-0.8-0.2-1.6-0.3-2.5-0.3c-2.3,0-3.4,0.8-3.4,2.3c0,0.4,0.1,0.8,0.4,1.2C9.1,9.5,9.5,9.8,9.9,10c0.6,0.3,1.2,0.5,1.8,0.7l2.5,0.7
			c1.2,0.3,2.4,0.7,3.6,1.2c1,0.4,1.9,0.9,2.7,1.6c0.7,0.6,1.3,1.4,1.7,2.3c0.4,1,0.6,2.2,0.6,3.3c0,1.4-0.2,2.8-0.9,4
			c-0.6,1-1.4,1.9-2.3,2.6c-1,0.7-2.1,1.2-3.3,1.5c-1.3,0.3-2.6,0.5-3.9,0.5c-1,0-2.1-0.1-3.1-0.2c-1.1-0.1-2.1-0.4-3.1-0.7
			c-1-0.3-2-0.7-3-1.1c-0.9-0.4-1.8-0.9-2.6-1.5l2.8-5.6c0.3,0.3,0.6,0.5,1,0.7c0.7,0.4,1.4,0.8,2.1,1.1c0.9,0.4,1.9,0.7,2.8,1
			c1,0.3,2.1,0.4,3.2,0.4c2.3,0,3.4-0.7,3.4-2.1c0-0.5-0.2-0.9-0.5-1.3c-0.4-0.4-0.9-0.7-1.4-0.9c-0.7-0.3-1.4-0.6-2.1-0.8l-2.7-0.8
			c-1.1-0.3-2.3-0.8-3.3-1.3c-0.9-0.4-1.6-0.9-2.3-1.6c-0.6-0.6-1.1-1.3-1.4-2.1C2,10.9,1.8,9.9,1.9,9c0-1.3,0.3-2.7,0.8-3.9
			c0.5-1.1,1.3-2,2.2-2.8c1-0.8,2.1-1.4,3.3-1.7C9.4,0.2,10.8,0,12.1,0c1,0,1.9,0.1,2.9,0.3c0.9,0.2,1.8,0.4,2.7,0.7
			c0.8,0.3,1.6,0.6,2.4,1c0.7,0.4,1.4,0.7,2,1.1L19.3,8.4z"/>
		<path class="st0" d="M47.7,5.8h-8.4v22.1h-6.4V5.8h-8.5V0.2h23.3V5.8z"/>
		<path class="st0" d="M70.2,22.3v5.6H50.8V0.2h19.1v5.6H57.2v5.4h10.9v5.2H57.2v5.9H70.2z"/>
		<path class="st0" d="M74.1,27.9V0.2h11.8c1.3,0,2.5,0.3,3.6,0.8c1.1,0.5,2,1.3,2.9,2.2c0.8,0.9,1.4,1.9,1.9,3
			C94.7,7.3,95,8.4,95,9.6c0,1.2-0.2,2.4-0.6,3.5c-0.4,1.1-1,2.1-1.8,3c-0.8,0.9-1.7,1.6-2.8,2.1c-1.1,0.5-2.4,0.8-3.6,0.8h-5.7v8.9
			L74.1,27.9z M80.5,13.4h5.2c0.8,0,1.5-0.4,2-1c0.6-0.8,0.9-1.8,0.8-2.9c0-0.6-0.1-1.1-0.3-1.7c-0.1-0.4-0.4-0.8-0.7-1.2
			c-0.3-0.3-0.6-0.5-1-0.7c-0.3-0.1-0.7-0.2-1.1-0.2h-5L80.5,13.4z"/>
		<path class="st0" d="M98.4,27.9V0.2h12.5c1.2,0,2.5,0.3,3.6,0.8c1.1,0.5,2.1,1.3,2.9,2.2c0.8,0.9,1.4,1.9,1.9,3
			c0.4,1.1,0.7,2.2,0.7,3.4c0,0.8-0.1,1.7-0.3,2.5c-0.2,0.8-0.5,1.5-0.9,2.2c-0.4,0.7-0.9,1.3-1.4,1.9c-0.6,0.6-1.2,1-1.9,1.4
			l6.1,10.3h-7.2l-5.3-8.9h-4.2v8.9L98.4,27.9z M104.8,13.4h5.8c0.8,0,1.6-0.4,2-1.1c0.6-0.8,0.9-1.8,0.8-2.8c0.1-1-0.3-2-0.9-2.7
			c-0.5-0.6-1.2-1-2-1h-5.7L104.8,13.4z"/>
		<path class="st0" d="M136.6,28.2c-1.9,0-3.8-0.4-5.6-1.2c-1.6-0.8-3.1-1.9-4.3-3.2c-1.2-1.3-2.1-2.8-2.8-4.5c-0.7-1.7-1-3.4-1-5.2
			c0-3.6,1.4-7.1,3.9-9.7c1.3-1.3,2.7-2.3,4.4-3.1c1.7-0.8,3.6-1.2,5.5-1.2c1.9,0,3.9,0.4,5.6,1.2c1.6,0.8,3.1,1.9,4.3,3.2
			c1.2,1.3,2.1,2.9,2.8,4.5c0.6,1.6,1,3.4,1,5.1c0,1.8-0.3,3.6-1,5.3c-1.4,3.4-4,6.1-7.3,7.6C140.4,27.8,138.5,28.2,136.6,28.2z
			 M129.4,14.2c0,1.1,0.2,2.1,0.5,3.1c0.3,1,0.8,1.9,1.4,2.7c0.6,0.8,1.4,1.4,2.3,1.9c1,0.5,2,0.7,3.1,0.7c1.1,0,2.2-0.2,3.2-0.7
			c0.9-0.5,1.7-1.1,2.3-1.9c0.6-0.8,1.1-1.7,1.3-2.7c0.3-1,0.5-2,0.4-3.1c0-1.1-0.2-2.1-0.5-3.1c-0.3-1-0.8-1.9-1.4-2.7
			c-0.6-0.8-1.4-1.4-2.3-1.8c-1-0.5-2-0.7-3.1-0.7c-1.1,0-2.2,0.2-3.2,0.7c-0.9,0.5-1.6,1.1-2.3,1.9c-0.6,0.8-1.1,1.7-1.4,2.7
			C129.5,12.1,129.4,13.1,129.4,14.2L129.4,14.2z"/>
		<path class="st0" d="M175.1,5.8h-8.4v22.1h-6.4V5.8h-8.5V0.2h23.3V5.8z"/>
		<path class="st0" d="M197.7,22.3v5.6h-19.5V0.2h19.1v5.6h-12.7v5.4h10.9v5.2h-10.9v5.9H197.7z"/>
		<path class="st0" d="M200,13.8c0-1.7,0.3-3.4,0.9-5c0.6-1.6,1.5-3.1,2.7-4.4c1.2-1.3,2.7-2.4,4.3-3.1c1.8-0.8,3.8-1.2,5.8-1.2
			c2.4-0.1,4.7,0.5,6.8,1.7c1.8,1,3.3,2.5,4.3,4.4L220,9.6c-0.3-0.7-0.7-1.3-1.2-1.8c-0.5-0.5-1-0.9-1.6-1.2
			c-0.6-0.3-1.2-0.5-1.8-0.6c-0.6-0.1-1.2-0.2-1.8-0.2c-1.1,0-2.2,0.2-3.2,0.7c-0.9,0.5-1.6,1.1-2.3,1.9c-0.6,0.8-1.1,1.7-1.3,2.7
			c-0.3,1-0.4,2-0.4,3c0,1.1,0.2,2.1,0.5,3.2c0.3,1,0.8,1.9,1.5,2.7c0.6,0.8,1.4,1.4,2.3,1.9c0.9,0.5,2,0.7,3,0.7
			c0.6,0,1.2-0.1,1.8-0.2c0.6-0.1,1.2-0.4,1.8-0.7c0.6-0.3,1.1-0.7,1.5-1.2c0.5-0.5,0.9-1.1,1.2-1.8l5.2,3.1c-0.4,1-1,2-1.9,2.7
			c-0.8,0.8-1.8,1.5-2.8,2c-1.1,0.6-2.2,1-3.4,1.3c-1.1,0.3-2.3,0.4-3.5,0.4c-1.9,0-3.8-0.4-5.5-1.2c-1.6-0.8-3.1-1.9-4.3-3.3
			c-1.2-1.3-2.2-2.9-2.8-4.6C200.3,17.4,200,15.6,200,13.8z"/>
		<path class="st0" d="M249.4,5.8H241v22.1h-6.4V5.8h-8.5V0.2h23.3L249.4,5.8z"/>
		<path class="st0" d="M0.4,344.1c0-1.1,0.2-2.3,0.6-3.3c0.4-1.1,1-2.1,1.8-3c1.8-1.9,4.2-2.9,6.8-2.9c1.6,0,3.1,0.3,4.5,1.1
			c1.2,0.7,2.2,1.7,2.8,2.9l-3.3,2.3c-0.2-0.4-0.5-0.9-0.8-1.2c-0.3-0.3-0.7-0.6-1.1-0.8c-0.4-0.2-0.8-0.3-1.2-0.4
			c-0.4-0.1-0.8-0.1-1.2-0.1c-0.7,0-1.5,0.2-2.1,0.5c-0.6,0.3-1.1,0.7-1.5,1.3c-0.4,0.5-0.7,1.1-0.9,1.8c-0.2,0.6-0.3,1.3-0.3,2
			c0,0.7,0.1,1.4,0.3,2.1c0.2,0.7,0.6,1.3,1,1.8c0.4,0.5,0.9,0.9,1.5,1.2c0.6,0.3,1.3,0.5,2,0.5c0.4,0,0.8-0.1,1.2-0.1
			c0.4-0.1,0.8-0.3,1.2-0.5c0.4-0.2,0.7-0.5,1-0.8c0.3-0.3,0.6-0.7,0.8-1.2l3.5,2.1c-0.3,0.7-0.7,1.3-1.2,1.8
			c-0.6,0.5-1.2,1-1.9,1.4c-0.7,0.4-1.5,0.6-2.3,0.8c-0.8,0.2-1.6,0.3-2.3,0.3c-1.3,0-2.5-0.3-3.7-0.8c-1.1-0.5-2.1-1.3-2.9-2.2
			c-0.8-0.9-1.4-1.9-1.9-3.1C0.6,346.5,0.4,345.3,0.4,344.1z"/>
		<path class="st0" d="M23.4,346.9l8.7-11.8h3.2v18.5H31V342l-8.6,11.5h-3.3v-18.5h4.3V346.9z"/>
		<path class="st0" d="M37.5,344.1c0-1.1,0.2-2.3,0.6-3.3c0.4-1.1,1-2.1,1.8-3c0.8-0.9,1.8-1.6,2.9-2.1c1.2-0.6,2.6-0.8,3.9-0.8
			c1.6,0,3.1,0.3,4.5,1.1c1.2,0.7,2.2,1.7,2.8,2.9l-3.3,2.3c-0.2-0.4-0.5-0.9-0.8-1.2c-0.3-0.3-0.7-0.6-1-0.8
			c-0.4-0.2-0.8-0.3-1.2-0.4c-0.4-0.1-0.8-0.1-1.2-0.1c-0.7,0-1.5,0.2-2.1,0.5c-0.6,0.3-1.1,0.7-1.5,1.3c-0.4,0.5-0.7,1.1-0.9,1.8
			c-0.2,0.7-0.3,1.3-0.3,2c0,0.7,0.1,1.4,0.3,2.1c0.2,0.7,0.6,1.3,1,1.8c0.4,0.5,0.9,0.9,1.5,1.2c0.6,0.3,1.3,0.5,2,0.5
			c0.4,0,0.8-0.1,1.2-0.1c0.4-0.1,0.8-0.3,1.2-0.5c0.4-0.2,0.7-0.5,1-0.8c0.3-0.3,0.6-0.7,0.8-1.2l3.5,2.1c-0.3,0.7-0.7,1.3-1.2,1.8
			c-0.6,0.5-1.2,1-1.9,1.4c-0.7,0.4-1.5,0.6-2.3,0.8c-0.8,0.2-1.6,0.3-2.3,0.3c-1.3,0-2.5-0.3-3.7-0.8c-1.1-0.5-2.1-1.3-2.9-2.2
			c-0.8-0.9-1.4-1.9-1.9-3.1C37.7,346.5,37.5,345.3,37.5,344.1z"/>
		<path class="st0" d="M70.2,338.8h-5.6v14.7h-4.3v-14.7h-5.6v-3.7h15.5V338.8z"/>
		<path class="st0" d="M85,349.8v3.7H72v-18.5h12.8v3.7h-8.5v3.6h7.3v3.5h-7.3v3.9L85,349.8z"/>
		<path class="st0" d="M101.9,353.5v-11l-4,8h-2.3l-4-8v11h-4.3v-18.5H92l4.8,9.6l4.8-9.6h4.6v18.5H101.9z"/>
		<path class="st0" d="M113.9,346.9l8.7-11.8h3.2v18.5h-4.3V342l-8.6,11.5h-3.3v-18.5h4.3L113.9,346.9z"/>
		<path class="st0" d="M134.9,335.1h13.8v3.7h-9.5v3.5h4.5c1.7-0.1,3.3,0.4,4.7,1.4c1.1,1,1.8,2.5,1.7,4.1c0.1,1.6-0.5,3.1-1.6,4.2
			c-1.3,1.1-2.9,1.6-4.6,1.5h-8.9V335.1z M143.3,349.9c0.6,0,1.2-0.2,1.7-0.6c0.8-0.9,0.8-2.2,0-3c-0.5-0.4-1.1-0.6-1.7-0.6h-4.2
			v4.2L143.3,349.9z"/>
		<path class="st0" d="M165.1,349.8v3.7h-13v-18.5h12.7v3.7h-8.5v3.6h7.3v3.5h-7.3v3.9L165.1,349.8z"/>
		<path class="st0" d="M166.3,337.5c0.8-0.9,1.8-1.5,2.8-2c1.2-0.5,2.5-0.7,3.7-0.7c1.5-0.1,3.1,0.3,4.3,1.2
			c1.1,0.8,1.7,2.2,1.6,3.5c0,0.8-0.2,1.7-0.6,2.4c-0.5,0.8-1.3,1.4-2.2,1.7c1,0.2,2,0.8,2.6,1.6c0.6,0.8,0.9,1.8,0.9,2.9
			c0,0.8-0.2,1.6-0.5,2.3c-0.3,0.7-0.8,1.3-1.4,1.7c-0.7,0.5-1.4,0.8-2.2,1.1c-0.9,0.2-1.8,0.4-2.7,0.4c-1.3,0-2.5-0.2-3.7-0.6
			c-1.1-0.4-2.1-1.1-3-1.9l2.2-3.1c0.6,0.5,1.2,1,1.9,1.3c0.8,0.3,1.6,0.5,2.4,0.5c0.7,0,1.4-0.2,1.9-0.6c0.5-0.4,0.8-1.1,0.8-1.8
			c0-0.6-0.2-1.2-0.7-1.7c-0.7-0.5-1.5-0.8-2.3-0.7H170v-3h1.9c0.8,0.1,1.6-0.1,2.2-0.5c0.5-0.3,0.8-0.9,0.8-1.5
			c0-0.5-0.2-1-0.6-1.3c-0.5-0.3-1.1-0.5-1.7-0.5c-0.8,0-1.5,0.1-2.2,0.4c-0.7,0.3-1.3,0.7-1.8,1.3L166.3,337.5z"/>
		<path class="st0" d="M181.8,335.1h15.5v18.5h-4.3v-14.7h-7v14.7h-4.3L181.8,335.1z"/>
		<path class="st0" d="M213.7,349.8v3.7h-13v-18.5h12.7v3.7H205v3.6h7.3v3.5H205v3.9L213.7,349.8z"/>
		<path class="st0" d="M220.3,342.4h1l5.4-7.3h4.8l-6.7,8.9l7.2,9.5h-4.8l-5.6-7.3h-1.4v7.3h-4.3v-18.5h4.3V342.4z"/>
		<path class="st0" d="M237.5,346.9l8.7-11.8h3.2v18.5h-4.3V342l-8.6,11.5h-3.3v-18.5h4.3L237.5,346.9z"/>
	</g>
</g>
</svg>
