<svg xmlns="http://www.w3.org/2000/svg" viewBox="0 0 1230.28 294"><defs><style>.cls-1{fill:#fff;}</style></defs><title>logo_hr_1</title><g id="Шар_2" data-name="Шар 2"><g id="Шар_1-2" data-name="Шар 1"><g id="Шар_1-2-2" data-name="Шар 1-2"><path class="cls-1" d="M0,198.9V157.5H29.8v26.2l32,24.4v-78H.2V0H249.5V67.8H219.8V30.2H30.4V99.6H62.2V64.2H187.3v36h62.2V199L124.8,294Zm124.8,9.8L92.4,184.1v47.4l32.4,24.7,94.5-72V130.6H187.6v30.3ZM157.3,94.5H92.4v51.7l32.4,24.7,32.4-24.8.1-51.6Z"/></g><path class="cls-1" d="M343.46,102.15a15,15,0,0,0-3.15-2.25,59.4,59.4,0,0,0-6.75-3.45,65.35,65.35,0,0,0-8.85-3.15,35.31,35.31,0,0,0-9.6-1.35q-13.2,0-13.2,8.85a7,7,0,0,0,1.43,4.5,12.48,12.48,0,0,0,4.2,3.22,38.7,38.7,0,0,0,7,2.63q4.2,1.2,9.75,2.7a127.53,127.53,0,0,1,13.8,4.57,37.09,37.09,0,0,1,10.43,6.15,24.93,24.93,0,0,1,6.6,8.93,31,31,0,0,1,2.32,12.6q0,9-3.37,15.22a28.46,28.46,0,0,1-8.93,10.05,37.72,37.72,0,0,1-12.75,5.55,63.52,63.52,0,0,1-14.85,1.73,82.83,82.83,0,0,1-12-.9,86.83,86.83,0,0,1-12-2.63A95.25,95.25,0,0,1,282.19,171a63.4,63.4,0,0,1-10.13-5.55L282.86,144a21.06,21.06,0,0,0,3.9,2.85,58.52,58.52,0,0,0,8.18,4.2,82.89,82.89,0,0,0,10.87,3.75A45.62,45.62,0,0,0,318,156.45q13.05,0,13.05-7.95a6.71,6.71,0,0,0-1.95-4.95,18.36,18.36,0,0,0-5.4-3.53,58.55,58.55,0,0,0-8.17-2.92q-4.73-1.35-10.28-3a88.77,88.77,0,0,1-12.75-4.88,33.48,33.48,0,0,1-8.92-6.07,21.94,21.94,0,0,1-5.25-8,29.25,29.25,0,0,1-1.73-10.5,33.43,33.43,0,0,1,3.15-14.85A32.07,32.07,0,0,1,288.26,79a37.23,37.23,0,0,1,12.53-6.67,49.74,49.74,0,0,1,15.07-2.25,57.24,57.24,0,0,1,10.95,1,82.48,82.48,0,0,1,10.35,2.7,74,74,0,0,1,9.23,3.75q4.28,2.1,7.87,4.2Z"/><path class="cls-1" d="M453,92.55h-32.4v84.9H396V92.55H363.41V71H453Z"/><path class="cls-1" d="M539.81,155.85v21.6H465V71h73.5v21.6h-48.9v20.7h42V133.2h-42v22.65Z"/><path class="cls-1" d="M554.81,177.45V71h45.45a31.2,31.2,0,0,1,14,3.15,35.92,35.92,0,0,1,11,8.25,39.39,39.39,0,0,1,7.2,11.55,34.36,34.36,0,0,1,2.63,13,37.36,37.36,0,0,1-2.48,13.5,38.54,38.54,0,0,1-6.9,11.55A32.52,32.52,0,0,1,615,140.1a32,32,0,0,1-14,3h-21.6v34.35Zm24.6-55.8h20.1a9.51,9.51,0,0,0,7.5-3.75q3.15-3.75,3.15-11a19,19,0,0,0-1-6.45,13.19,13.19,0,0,0-2.62-4.5,10.06,10.06,0,0,0-3.75-2.63,11.41,11.41,0,0,0-4.2-.82h-19.2Z"/><path class="cls-1" d="M648.26,177.45V71h48a30.9,30.9,0,0,1,13.87,3.15,37,37,0,0,1,11,8.25,38.78,38.78,0,0,1,7.27,11.55,34.36,34.36,0,0,1,2.63,13,37.15,37.15,0,0,1-4.65,18.15,32.74,32.74,0,0,1-12.75,12.75l23.4,39.6H709.31l-20.4-34.35h-16v34.35Zm24.6-55.8h22.5c2.89,0,5.4-1.38,7.5-4.13A16.92,16.92,0,0,0,706,107q0-6.6-3.6-10.5c-2.4-2.6-5-3.9-7.8-3.9H672.86Z"/><path class="cls-1" d="M795.41,178.35a49.47,49.47,0,0,1-21.6-4.65,53,53,0,0,1-16.65-12.23,55.49,55.49,0,0,1-10.73-17.32,54.57,54.57,0,0,1-3.82-20.1,53.14,53.14,0,0,1,4-20.25,53.67,53.67,0,0,1,28-29,50.86,50.86,0,0,1,21.3-4.42A49.6,49.6,0,0,1,817.46,75a52.79,52.79,0,0,1,16.65,12.3,55.85,55.85,0,0,1,10.65,17.4,55,55,0,0,1,3.75,19.8,53.15,53.15,0,0,1-4,20.25,53.9,53.9,0,0,1-27.82,29.1A50.27,50.27,0,0,1,795.41,178.35Zm-27.75-54a39.81,39.81,0,0,0,1.8,11.92,31.89,31.89,0,0,0,5.32,10.28,26.15,26.15,0,0,0,8.78,7.2,25.84,25.84,0,0,0,12,2.7,25.45,25.45,0,0,0,12.3-2.85,26.9,26.9,0,0,0,8.7-7.43,32.65,32.65,0,0,0,5.17-10.35,40.9,40.9,0,0,0,1.73-11.77,39.87,39.87,0,0,0-1.8-11.93,30.24,30.24,0,0,0-5.4-10.2,26.83,26.83,0,0,0-8.78-7,26,26,0,0,0-11.92-2.62A25.5,25.5,0,0,0,783.33,95a27.31,27.31,0,0,0-8.7,7.28,30.74,30.74,0,0,0-5.25,10.27A41,41,0,0,0,767.66,124.35Z"/><path class="cls-1" d="M943.9,92.55H911.5v84.9H886.9V92.55H854.35V71H943.9Z"/><path class="cls-1" d="M1030.75,155.85v21.6H955.9V71h73.5v21.6H980.5v20.7h42V133.2h-42v22.65Z"/><path class="cls-1" d="M1039.6,123.3a53.77,53.77,0,0,1,3.6-19.13,52.13,52.13,0,0,1,10.5-17A53.33,53.33,0,0,1,1070.5,75a52.32,52.32,0,0,1,22.5-4.65q15,0,26,6.45a41.71,41.71,0,0,1,16.42,16.8l-18.9,13.2a22,22,0,0,0-4.57-7,25,25,0,0,0-12.83-6.9,35.1,35.1,0,0,0-6.75-.67,25.39,25.39,0,0,0-12.3,2.85,27.08,27.08,0,0,0-8.7,7.35,30.56,30.56,0,0,0-5.1,10.2,41.34,41.34,0,0,0-1.65,11.55,38.17,38.17,0,0,0,1.95,12.15,32.39,32.39,0,0,0,5.63,10.35,27.17,27.17,0,0,0,8.85,7.12,25.31,25.31,0,0,0,11.62,2.63,30,30,0,0,0,6.83-.83,27.58,27.58,0,0,0,6.75-2.55,24.11,24.11,0,0,0,5.92-4.5,21,21,0,0,0,4.35-6.82l20.1,11.85a31.3,31.3,0,0,1-7.12,10.5,44,44,0,0,1-10.88,7.8,59.71,59.71,0,0,1-26.55,6.45,47.69,47.69,0,0,1-21.22-4.73,53.69,53.69,0,0,1-16.65-12.52,57.3,57.3,0,0,1-10.8-17.7A55.36,55.36,0,0,1,1039.6,123.3Z"/><path class="cls-1" d="M1230.1,92.55h-32.4v84.9h-24.6V92.55h-32.55V71h89.55Z"/><path class="cls-1" d="M272.17,209.28a14.39,14.39,0,0,1,1-5.1,13.93,13.93,0,0,1,2.79-4.54,14.29,14.29,0,0,1,4.49-3.24,14.05,14.05,0,0,1,6-1.24,13.54,13.54,0,0,1,6.93,1.72,11.15,11.15,0,0,1,4.38,4.48l-5,3.52a5.73,5.73,0,0,0-1.22-1.86,6.66,6.66,0,0,0-3.42-1.84,9.29,9.29,0,0,0-1.79-.18,6.89,6.89,0,0,0-3.29.76,7.37,7.37,0,0,0-2.32,2,8.16,8.16,0,0,0-1.35,2.72,10.83,10.83,0,0,0-.45,3.08,10.09,10.09,0,0,0,.53,3.24,8.38,8.38,0,0,0,1.5,2.76,7.09,7.09,0,0,0,2.35,1.9,6.74,6.74,0,0,0,3.11.7,7.71,7.71,0,0,0,1.81-.22,7.08,7.08,0,0,0,1.81-.68,6.35,6.35,0,0,0,1.58-1.2,5.66,5.66,0,0,0,1.15-1.82l5.36,3.16a8.05,8.05,0,0,1-1.9,2.8,11.64,11.64,0,0,1-2.89,2.08,15.5,15.5,0,0,1-3.49,1.28,15,15,0,0,1-3.59.44,12.75,12.75,0,0,1-5.67-1.26,14.23,14.23,0,0,1-4.43-3.34,15.42,15.42,0,0,1-2.89-4.72A14.72,14.72,0,0,1,272.17,209.28Z"/><path class="cls-1" d="M348.64,213.52,362,195.32h4.88v28.4h-6.56V206l-13.2,17.76H342v-28.4h6.6Z"/><path class="cls-1" d="M411.4,209.28a14.39,14.39,0,0,1,1-5.1,14.13,14.13,0,0,1,2.8-4.54,14.37,14.37,0,0,1,4.48-3.24,14.05,14.05,0,0,1,6-1.24,13.56,13.56,0,0,1,6.94,1.72,11.15,11.15,0,0,1,4.38,4.48l-5,3.52A5.89,5.89,0,0,0,430.7,203a6.66,6.66,0,0,0-3.42-1.84,9.31,9.31,0,0,0-1.8-.18,6.88,6.88,0,0,0-3.28.76,7.37,7.37,0,0,0-2.32,2,8.37,8.37,0,0,0-1.36,2.72,11.18,11.18,0,0,0-.44,3.08,10.37,10.37,0,0,0,.52,3.24,8.77,8.77,0,0,0,1.5,2.76,7.23,7.23,0,0,0,2.36,1.9,6.73,6.73,0,0,0,3.1.7,7.73,7.73,0,0,0,1.82-.22,6.88,6.88,0,0,0,1.8-.68,6,6,0,0,0,1.58-1.2,5.52,5.52,0,0,0,1.16-1.82l5.36,3.16a8.19,8.19,0,0,1-1.9,2.8,11.51,11.51,0,0,1-2.9,2.08,15.24,15.24,0,0,1-3.48,1.28,15,15,0,0,1-3.6.44,12.73,12.73,0,0,1-5.66-1.26,14.27,14.27,0,0,1-4.44-3.34,15.2,15.2,0,0,1-2.88-4.72A14.74,14.74,0,0,1,411.4,209.28Z"/><path class="cls-1" d="M502.8,201.08h-8.64v22.64H487.6V201.08h-8.68v-5.76H502.8Z"/><path class="cls-1" d="M566.68,218v5.76h-20v-28.4h19.6v5.76h-13v5.52h11.2v5.32h-11.2v6Z"/><path class="cls-1" d="M633.8,223.72v-17l-6.16,12.36h-3.52L618,206.72v17H611.4v-28.4h7.12l7.36,14.84,7.4-14.84h7.08v28.4Z"/><path class="cls-1" d="M693.28,213.52l13.36-18.2h4.88v28.4H705V206l-13.2,17.76h-5.08v-28.4h6.6Z"/><path class="cls-1" d="M807.72,195.32H829v5.76H814.32v5.44h6.88a10.66,10.66,0,0,1,7.18,2.22A7.82,7.82,0,0,1,831,215a8.31,8.31,0,0,1-2.48,6.44c-1.65,1.52-4,2.28-7,2.28H807.72Zm13,22.84a3.62,3.62,0,0,0,2.62-.86,3.52,3.52,0,0,0,0-4.68,3.55,3.55,0,0,0-2.64-.9h-6.4v6.44Z"/><path class="cls-1" d="M895.24,218v5.76h-20v-28.4h19.6v5.76h-13v5.52H893v5.32h-11.2v6Z"/><path class="cls-1" d="M938.28,199.12a13,13,0,0,1,4.34-3,14.72,14.72,0,0,1,5.74-1,11,11,0,0,1,6.68,1.84,6.36,6.36,0,0,1,2.48,5.44,7.39,7.39,0,0,1-1,3.72,5.91,5.91,0,0,1-3.34,2.56,6.9,6.9,0,0,1,4,2.46,7.12,7.12,0,0,1,1.38,4.42,7.83,7.83,0,0,1-.8,3.58,7.51,7.51,0,0,1-2.22,2.66,10.13,10.13,0,0,1-3.36,1.64A14.77,14.77,0,0,1,948,224a15.69,15.69,0,0,1-5.68-.94,14.61,14.61,0,0,1-4.64-2.94l3.36-4.84A12,12,0,0,0,944,217.3a8.35,8.35,0,0,0,3.74.78,4.78,4.78,0,0,0,3-.9,3.17,3.17,0,0,0,1.18-2.7,3.41,3.41,0,0,0-1.1-2.56,5,5,0,0,0-3.54-1h-3.44v-4.56h3a6,6,0,0,0,3.44-.8,2.6,2.6,0,0,0,1.16-2.28,2.44,2.44,0,0,0-.84-2,4.06,4.06,0,0,0-2.6-.7,8.25,8.25,0,0,0-3.42.68,10.18,10.18,0,0,0-2.82,2Z"/><path class="cls-1" d="M1003.2,195.32h23.88v28.4h-6.56V201.08H1009.8v22.64h-6.6Z"/><path class="cls-1" d="M1093.32,218v5.76h-20v-28.4H1093v5.76h-13v5.52h11.2v5.32h-11.2v6Z"/><path class="cls-1" d="M1144.6,206.6h1.48l8.28-11.28h7.4L1151.56,209l11.12,14.68h-7.32l-8.68-11.16h-2.08v11.16H1138v-28.4h6.56Z"/><path class="cls-1" d="M1212,213.52l13.36-18.2h4.88v28.4h-6.56V206l-13.2,17.76h-5.08v-28.4h6.6Z"/></g></g></svg>