<?xml version="1.0" encoding="utf-8"?>
<!-- Generator: Adobe Illustrator 23.0.1, SVG Export Plug-In . SVG Version: 6.00 Build 0)  -->
<svg version="1.1" id="Шар_1" xmlns="http://www.w3.org/2000/svg" xmlns:xlink="http://www.w3.org/1999/xlink" x="0px" y="0px"
	 viewBox="0 0 1053.6 294" style="enable-background:new 0 0 1053.6 294;" xml:space="preserve">
<style type="text/css">
	.st0{fill:#B2B3BA;}
</style>
<title>logo_hr</title>
<g>
	<g id="Шар_1-2">
		<g id="Шар_1-2-2">
			<path class="st0" d="M0,198.9v-41.4h29.8v26.2l32,24.4v-78H0.2V0h249.3v67.8h-29.7V30.2H30.4v69.4h31.8V64.2h125.1v36h62.2V199
				l-124.7,95L0,198.9z M124.8,208.7l-32.4-24.6v47.4l32.4,24.7l94.5-72v-53.6h-31.7v30.3L124.8,208.7z M157.3,94.5H92.4v51.7
				l32.4,24.7l32.4-24.8L157.3,94.5L157.3,94.5z"/>
		</g>
		<g>
			<path class="st0" d="M344.3,101.4c-0.8-0.7-1.6-1.3-2.5-1.8c-1.7-1-3.5-2-5.4-2.8c-2.3-1-4.7-1.9-7.1-2.5
				c-2.5-0.7-5.1-1.1-7.7-1.1c-7.1,0-10.6,2.4-10.6,7.1c0,1.3,0.4,2.6,1.1,3.6c0.9,1.1,2.1,2,3.4,2.6c1.8,0.9,3.7,1.6,5.6,2.1
				c2.2,0.7,4.8,1.4,7.8,2.2c3.7,1,7.4,2.2,11,3.7c3,1.2,5.8,2.8,8.3,4.9c2.3,2,4.1,4.4,5.3,7.1c1.3,3.2,1.9,6.6,1.9,10.1
				c0.1,4.2-0.8,8.4-2.7,12.2c-1.7,3.2-4.2,5.9-7.1,8c-3.1,2.1-6.6,3.6-10.2,4.4c-3.9,0.9-7.9,1.4-11.9,1.4c-3.2,0-6.4-0.2-9.6-0.7
				c-3.2-0.5-6.5-1.2-9.6-2.1c-3.1-0.9-6.1-2-9.1-3.3c-2.8-1.2-5.5-2.7-8.1-4.4l8.6-17.2c0.9,0.9,2,1.6,3.1,2.3
				c2.1,1.3,4.3,2.4,6.5,3.4c2.8,1.2,5.7,2.2,8.7,3c3.2,0.9,6.4,1.3,9.7,1.3c7,0,10.4-2.1,10.4-6.4c0.1-1.5-0.5-2.9-1.6-4
				c-1.3-1.2-2.7-2.1-4.3-2.8c-2.1-0.9-4.3-1.7-6.5-2.3c-2.5-0.7-5.3-1.5-8.2-2.4c-3.5-1-6.9-2.3-10.2-3.9c-2.6-1.2-5-2.9-7.1-4.9
				c-1.8-1.8-3.3-4-4.2-6.4c-1-2.7-1.4-5.5-1.4-8.4c-0.1-4.1,0.8-8.2,2.5-11.9c1.6-3.4,4-6.3,6.8-8.7c3-2.4,6.4-4.2,10-5.3
				c3.9-1.2,8-1.8,12.1-1.8c2.9,0,5.9,0.3,8.8,0.8c2.8,0.5,5.6,1.3,8.3,2.2c2.5,0.8,5,1.8,7.4,3c2.3,1.1,4.4,2.2,6.3,3.4
				L344.3,101.4z"/>
			<path class="st0" d="M431.9,93.7H406v67.9h-19.7V93.7h-26V76.4h71.6L431.9,93.7z"/>
			<path class="st0" d="M501.4,144.3v17.3h-59.9V76.4h58.8v17.3h-39.1v16.6h33.6v16h-33.6v18.1L501.4,144.3z"/>
			<path class="st0" d="M513.4,161.6V76.4h36.4c3.9,0,7.7,0.8,11.2,2.5c3.3,1.6,6.3,3.9,8.8,6.6c2.4,2.7,4.4,5.8,5.8,9.2
				c1.4,3.3,2.1,6.9,2.1,10.4c0,3.7-0.7,7.4-2,10.8c-1.3,3.4-3.2,6.5-5.5,9.2c-2.4,2.7-5.3,4.9-8.6,6.5c-3.5,1.6-7.3,2.4-11.2,2.4
				H533v27.5H513.4z M533,117h16.1c2.4,0,4.6-1.1,6-3c1.7-2,2.5-4.9,2.5-8.8c0-1.8-0.2-3.5-0.8-5.2c-0.5-1.3-1.2-2.6-2.1-3.6
				c-0.8-0.9-1.9-1.6-3-2.1c-1.1-0.4-2.2-0.7-3.4-0.7H533V117z"/>
			<path class="st0" d="M588.1,161.6V76.4h38.4c3.8,0,7.6,0.8,11.1,2.5c3.3,1.6,6.3,3.9,8.8,6.6c2.5,2.7,4.4,5.8,5.8,9.2
				c1.4,3.3,2.1,6.9,2.1,10.4c0,5.1-1.3,10.1-3.7,14.5c-2.4,4.3-5.9,7.8-10.2,10.2l18.7,31.7H637l-16.3-27.5h-12.9v27.5H588.1z
				 M607.8,117h18c2.4,0,4.7-1.3,6-3.3c1.8-2.5,2.7-5.4,2.5-8.5c0.2-3.1-0.9-6.1-2.9-8.4c-1.5-1.9-3.8-3-6.2-3.1h-17.4V117z"/>
			<path class="st0" d="M705.8,162.3c-6,0.1-11.9-1.2-17.3-3.7c-5-2.4-9.6-5.7-13.3-9.8c-3.7-4-6.6-8.7-8.6-13.8
				c-2-5.1-3.1-10.6-3.1-16.1c0-11.2,4.4-21.9,12.1-29.9c3.8-4,8.4-7.2,13.5-9.5c5.3-2.4,11.1-3.6,17-3.5c6-0.1,11.9,1.2,17.3,3.7
				c5,2.4,9.6,5.7,13.3,9.8c3.7,4.1,6.6,8.8,8.5,13.9c2,5.1,3,10.4,3,15.8c0,5.6-1.1,11.1-3.2,16.2c-4.1,10.3-12.1,18.7-22.3,23.3
				C717.5,161.2,711.7,162.4,705.8,162.3z M683.6,119.1c0,3.2,0.5,6.5,1.4,9.5c0.9,3,2.4,5.8,4.3,8.2c4,5.1,10.2,8.1,16.7,7.9
				c3.4,0.1,6.8-0.7,9.8-2.3c2.7-1.5,5.1-3.5,7-5.9c1.9-2.5,3.3-5.3,4.1-8.3c0.9-3.1,1.4-6.2,1.4-9.4c0-3.2-0.5-6.5-1.4-9.5
				c-0.9-3-2.4-5.7-4.3-8.2c-1.9-2.4-4.3-4.3-7-5.6c-3-1.4-6.2-2.2-9.5-2.1c-3.4-0.1-6.8,0.7-9.8,2.2c-2.7,1.4-5.1,3.4-7,5.8
				c-1.9,2.4-3.3,5.2-4.2,8.2C684.1,112.8,683.7,115.9,683.6,119.1z"/>
			<path class="st0" d="M824.6,93.7h-25.9v67.9H779V93.7h-26V76.4h71.6V93.7z"/>
			<path class="st0" d="M894.1,144.3v17.3h-59.9V76.4H893v17.3h-39.1v16.6h33.6v16h-33.6v18.1L894.1,144.3z"/>
			<path class="st0" d="M901.2,118.3c0-5.2,1-10.4,2.9-15.3c1.9-5,4.7-9.7,8.4-13.6c3.8-4.1,8.4-7.4,13.4-9.7
				c5.7-2.6,11.8-3.8,18-3.7c8,0,14.9,1.7,20.8,5.2c5.6,3.1,10.1,7.8,13.1,13.4l-15.1,10.6c-0.9-2.1-2.1-4-3.7-5.6
				c-2.8-2.8-6.4-4.7-10.3-5.5c-1.8-0.4-3.6-0.5-5.4-0.5c-3.4-0.1-6.8,0.7-9.8,2.3c-2.7,1.4-5.1,3.4-7,5.9c-1.9,2.4-3.2,5.2-4.1,8.2
				c-0.9,3-1.3,6.1-1.3,9.2c0,3.3,0.5,6.6,1.6,9.7c1,3,2.5,5.8,4.5,8.3c1.9,2.4,4.3,4.3,7.1,5.7c2.9,1.4,6.1,2.1,9.3,2.1
				c1.8,0,3.7-0.2,5.5-0.7c1.9-0.4,3.7-1.1,5.4-2c1.8-0.9,3.4-2.2,4.7-3.6c1.5-1.6,2.7-3.4,3.5-5.5l16.1,9.5c-1.3,3.2-3.2,6-5.7,8.4
				c-2.6,2.5-5.5,4.6-8.7,6.2c-6.6,3.3-13.9,5.1-21.2,5.2c-5.9,0.1-11.7-1.2-17-3.8c-5-2.4-9.6-5.8-13.3-10c-3.7-4.2-6.6-9-8.6-14.2
				C902.2,129.3,901.2,123.8,901.2,118.3z"/>
			<path class="st0" d="M1053.6,93.7h-25.9v67.9H1008V93.7h-26V76.4h71.6L1053.6,93.7z"/>
		</g>
		<g>
			<path class="st0" d="M285.4,193.5c0-1.3,0.2-2.6,0.7-3.8c0.5-1.3,1.2-2.4,2.1-3.4c1-1,2.1-1.8,3.4-2.4c1.4-0.6,2.9-1,4.5-0.9
				c1.8,0,3.6,0.4,5.2,1.3c1.4,0.8,2.5,1.9,3.3,3.4l-3.8,2.6c-0.2-0.5-0.5-1-0.9-1.4c-0.7-0.7-1.6-1.2-2.6-1.4
				c-0.4-0.1-0.9-0.1-1.4-0.1c-0.9,0-1.7,0.2-2.5,0.6c-0.7,0.4-1.3,0.9-1.7,1.5c-0.5,0.6-0.8,1.3-1,2c-0.2,0.8-0.3,1.5-0.3,2.3
				c0,0.8,0.1,1.6,0.4,2.4c0.2,0.8,0.6,1.5,1.1,2.1c0.5,0.6,1.1,1.1,1.8,1.4c0.7,0.4,1.5,0.5,2.3,0.5c0.5,0,0.9-0.1,1.4-0.2
				c0.5-0.1,0.9-0.3,1.4-0.5c0.4-0.2,0.8-0.5,1.2-0.9c0.4-0.4,0.7-0.9,0.9-1.4l4,2.4c-0.3,0.8-0.8,1.5-1.4,2.1
				c-0.6,0.6-1.4,1.2-2.2,1.6c-1.6,0.8-3.5,1.3-5.3,1.3c-1.5,0-2.9-0.3-4.3-0.9c-1.3-0.6-2.4-1.5-3.3-2.5c-0.9-1-1.7-2.2-2.2-3.5
				C285.7,196.2,285.4,194.8,285.4,193.5z"/>
			<path class="st0" d="M346.2,196.6l10-13.6h3.7v21.3H355V191l-9.9,13.3h-3.8V183h5L346.2,196.6z"/>
			<path class="st0" d="M396.7,193.5c0-1.3,0.2-2.6,0.7-3.8c0.5-1.3,1.2-2.4,2.1-3.4c1-1,2.1-1.9,3.4-2.4c1.4-0.6,2.9-1,4.5-0.9
				c1.8,0,3.6,0.4,5.2,1.3c1.4,0.8,2.5,2,3.3,3.4l-3.8,2.6c-0.2-0.5-0.5-1-0.9-1.4c-0.4-0.4-0.8-0.7-1.2-0.9
				c-0.4-0.2-0.9-0.4-1.4-0.5c-0.4-0.1-0.9-0.1-1.4-0.1c-0.9,0-1.7,0.2-2.5,0.6c-0.7,0.4-1.3,0.9-1.7,1.5c-0.5,0.6-0.8,1.3-1,2
				c-0.5,1.5-0.4,3.2,0,4.7c0.2,0.8,0.6,1.5,1.1,2.1c0.5,0.6,1.1,1.1,1.8,1.4c0.7,0.4,1.5,0.5,2.3,0.5c0.5,0,0.9-0.1,1.4-0.2
				c0.5-0.1,0.9-0.3,1.4-0.5c0.4-0.2,0.8-0.5,1.2-0.9c0.4-0.4,0.7-0.9,0.9-1.4l4,2.4c-0.3,0.8-0.8,1.5-1.4,2.1
				c-0.6,0.6-1.4,1.2-2.2,1.6c-0.8,0.4-1.7,0.8-2.6,1c-0.9,0.2-1.8,0.3-2.7,0.3c-1.5,0-2.9-0.3-4.3-0.9c-1.3-0.6-2.4-1.5-3.3-2.5
				c-0.9-1-1.7-2.2-2.2-3.5C397,196.2,396.7,194.8,396.7,193.5z"/>
			<path class="st0" d="M468.7,187.3h-6.5v17h-4.9v-17h-6.5V183h17.9L468.7,187.3z"/>
			<path class="st0" d="M520.1,200v4.3h-15V183h14.7v4.3H510v4.1h8.4v4H510v4.5H520.1z"/>
			<path class="st0" d="M573.9,204.3v-12.8l-4.6,9.3h-2.6l-4.6-9.3v12.8h-4.9V183h5.3l5.5,11.1l5.5-11.1h5.3v21.3H573.9z"/>
			<path class="st0" d="M621.9,196.6L632,183h3.7v21.3h-5V191l-9.9,13.3H617V183h5L621.9,196.6z"/>
			<path class="st0" d="M714.7,183h15.9v4.3h-11v4.1h5.2c1.9-0.1,3.9,0.5,5.4,1.7c1.3,1.2,2,2.9,1.9,4.7c0.1,1.8-0.6,3.6-1.9,4.8
				c-1.5,1.2-3.3,1.8-5.2,1.7h-10.3V183z M724.4,200.1c0.7,0.1,1.4-0.2,2-0.6c0.5-0.5,0.7-1.1,0.7-1.8c0-0.6-0.2-1.3-0.7-1.7
				c-0.5-0.5-1.3-0.7-2-0.7h-4.8v4.8L724.4,200.1z"/>
			<path class="st0" d="M783.8,200v4.3h-15V183h14.7v4.3h-9.8v4.1h8.4v4h-8.4v4.5H783.8z"/>
			<path class="st0" d="M819.5,185.9c0.9-1,2-1.7,3.3-2.3c1.4-0.5,2.8-0.8,4.3-0.8c1.8-0.1,3.5,0.4,5,1.4c1.3,1,2,2.5,1.9,4.1
				c0,1-0.2,1.9-0.7,2.8c-0.6,0.9-1.5,1.6-2.5,1.9c1.2,0.2,2.2,0.9,3,1.8c0.7,1,1,2.1,1,3.3c0,0.9-0.2,1.8-0.6,2.7
				c-0.4,0.8-1,1.5-1.7,2c-0.8,0.6-1.6,1-2.5,1.2c-1,0.3-2.1,0.4-3.1,0.4c-1.5,0-2.9-0.2-4.3-0.7c-1.3-0.5-2.5-1.3-3.5-2.2l2.5-3.6
				c0.7,0.6,1.4,1.1,2.2,1.5c0.9,0.4,1.8,0.6,2.8,0.6c0.8,0,1.6-0.2,2.2-0.7c0.6-0.5,0.9-1.2,0.9-2c0-0.7-0.3-1.4-0.8-1.9
				c-0.8-0.6-1.7-0.9-2.7-0.8h-2.6v-3.4h2.2c0.9,0.1,1.8-0.1,2.6-0.6c0.6-0.4,0.9-1,0.9-1.7c0-0.6-0.2-1.1-0.6-1.5
				c-0.6-0.4-1.3-0.6-2-0.5c-0.9,0-1.8,0.2-2.6,0.5c-0.8,0.4-1.5,0.9-2.1,1.5L819.5,185.9z"/>
			<path class="st0" d="M871.6,183h17.9v21.3h-4.9v-17h-8v17h-5L871.6,183z"/>
			<path class="st0" d="M942.7,200v4.3h-15V183h14.7v4.3h-9.8v4.1h8.4v4h-8.4v4.5H942.7z"/>
			<path class="st0" d="M984.6,191.5h1.1l6.2-8.5h5.5l-7.7,10.3l8.3,11h-5.5l-6.5-8.4h-1.6v8.4h-4.9V183h4.9V191.5z"/>
			<path class="st0" d="M1038.6,196.6l10-13.6h3.7v21.3h-4.9V191l-9.9,13.3h-3.8V183h4.9L1038.6,196.6z"/>
		</g>
	</g>
</g>
</svg>
