<svg xmlns="http://www.w3.org/2000/svg" viewBox="0 0 1053.59 294"><defs><style>.cls-1{fill:#fff;}.cls-2{isolation:isolate;}</style></defs><title>logo_hr</title><g id="Шар_2" data-name="Шар 2"><g id="Шар_1-2" data-name="Шар 1"><g id="Шар_1-2-2" data-name="Шар 1-2"><path class="cls-1" d="M0,198.9V157.5H29.8v26.2l32,24.4v-78H.2V0H249.5V67.8H219.8V30.2H30.4V99.6H62.2V64.2H187.3v36h62.2V199L124.8,294Zm124.8,9.8L92.4,184.1v47.4l32.4,24.7,94.5-72V130.6H187.6v30.3ZM157.3,94.5H92.4v51.7l32.4,24.7,32.4-24.8.1-51.6Z"/></g><g class="cls-2"><path class="cls-1" d="M344.28,101.36a12,12,0,0,0-2.52-1.8,47.52,47.52,0,0,0-5.4-2.76,52.28,52.28,0,0,0-7.08-2.52,28.25,28.25,0,0,0-7.68-1.08Q311,93.2,311,100.28a5.62,5.62,0,0,0,1.14,3.6,10.07,10.07,0,0,0,3.36,2.58,31,31,0,0,0,5.58,2.1q3.36,1,7.8,2.16a102,102,0,0,1,11,3.66,29.65,29.65,0,0,1,8.34,4.92,19.93,19.93,0,0,1,5.28,7.14,24.79,24.79,0,0,1,1.86,10.08,25.26,25.26,0,0,1-2.7,12.18,22.76,22.76,0,0,1-7.14,8,30.17,30.17,0,0,1-10.2,4.44,51.35,51.35,0,0,1-11.88,1.38,66.27,66.27,0,0,1-9.6-.72,69.46,69.46,0,0,1-9.6-2.1,76.27,76.27,0,0,1-9.06-3.3,50.68,50.68,0,0,1-8.1-4.44l8.64-17.16a16.85,16.85,0,0,0,3.12,2.28,46.75,46.75,0,0,0,6.54,3.36,66.79,66.79,0,0,0,8.7,3,36.5,36.5,0,0,0,9.72,1.32q10.44,0,10.44-6.36a5.37,5.37,0,0,0-1.56-4,14.69,14.69,0,0,0-4.32-2.82,46.88,46.88,0,0,0-6.54-2.34q-3.78-1.08-8.22-2.4a71,71,0,0,1-10.2-3.9,27,27,0,0,1-7.14-4.86,17.66,17.66,0,0,1-4.2-6.36,23.4,23.4,0,0,1-1.38-8.4,26.75,26.75,0,0,1,2.52-11.88,25.64,25.64,0,0,1,6.84-8.7,29.77,29.77,0,0,1,10-5.34,39.82,39.82,0,0,1,12.06-1.8,45.79,45.79,0,0,1,8.76.84,66,66,0,0,1,8.28,2.16,59.14,59.14,0,0,1,7.38,3q3.42,1.68,6.3,3.36Z"/><path class="cls-1" d="M431.88,93.68H406V161.6H386.28V93.68h-26V76.4h71.64Z"/><path class="cls-1" d="M501.36,144.32V161.6H441.48V76.4h58.8V93.68H461.16v16.56h33.6v16h-33.6v18.12Z"/><path class="cls-1" d="M513.36,161.6V76.4h36.36a25,25,0,0,1,11.22,2.52,28.73,28.73,0,0,1,8.76,6.6,31.51,31.51,0,0,1,5.76,9.24,27.48,27.48,0,0,1,2.1,10.44,29.89,29.89,0,0,1-2,10.8,30.83,30.83,0,0,1-5.52,9.24,26,26,0,0,1-8.58,6.48,25.62,25.62,0,0,1-11.16,2.4H533V161.6ZM533,117h16.08a7.61,7.61,0,0,0,6-3q2.52-3,2.52-8.76a15.23,15.23,0,0,0-.78-5.16,10.56,10.56,0,0,0-2.1-3.6,8,8,0,0,0-3-2.1,9.13,9.13,0,0,0-3.36-.66H533Z"/><path class="cls-1" d="M588.12,161.6V76.4h38.4a24.74,24.74,0,0,1,11.1,2.52,29.49,29.49,0,0,1,8.82,6.6,31.08,31.08,0,0,1,5.82,9.24,27.68,27.68,0,0,1,2.1,10.44,29.55,29.55,0,0,1-3.73,14.52,25.94,25.94,0,0,1-10.19,10.2l18.72,31.68H637l-16.33-27.48H607.79V161.6ZM607.79,117h18a7.36,7.36,0,0,0,6-3.3,13.55,13.55,0,0,0,2.53-8.46,11.9,11.9,0,0,0-2.88-8.4,8.45,8.45,0,0,0-6.24-3.12H607.79Z"/><path class="cls-1" d="M705.84,162.32a39.56,39.56,0,0,1-17.28-3.72,42.37,42.37,0,0,1-13.32-9.78A44.37,44.37,0,0,1,666.66,135a43.66,43.66,0,0,1-3.06-16.08,43.52,43.52,0,0,1,12.06-29.94,43.07,43.07,0,0,1,13.5-9.48,40.68,40.68,0,0,1,17-3.54,39.69,39.69,0,0,1,17.28,3.72,42.26,42.26,0,0,1,13.32,9.84,44.76,44.76,0,0,1,8.52,13.92,44,44,0,0,1,3,15.84,42.71,42.71,0,0,1-3.18,16.2,43.11,43.11,0,0,1-22.26,23.28A40.2,40.2,0,0,1,705.84,162.32Zm-22.2-43.2a31.87,31.87,0,0,0,1.44,9.54,25.5,25.5,0,0,0,4.26,8.22A20.5,20.5,0,0,0,706,144.8a20.37,20.37,0,0,0,9.84-2.28,21.55,21.55,0,0,0,7-5.94,26.38,26.38,0,0,0,4.14-8.28,33.09,33.09,0,0,0,1.38-9.42,31.87,31.87,0,0,0-1.44-9.54,24.19,24.19,0,0,0-4.32-8.16,21.45,21.45,0,0,0-7-5.64,20.81,20.81,0,0,0-9.54-2.1,20.38,20.38,0,0,0-9.78,2.22,21.73,21.73,0,0,0-7,5.82,24.25,24.25,0,0,0-4.2,8.22A32.4,32.4,0,0,0,683.64,119.12Z"/><path class="cls-1" d="M824.63,93.68H798.71V161.6H779V93.68H753V76.4h71.63Z"/><path class="cls-1" d="M894.11,144.32V161.6H834.23V76.4H893V93.68H853.91v16.56h33.6v16h-33.6v18.12Z"/><path class="cls-1" d="M901.19,118.28a43,43,0,0,1,2.88-15.3,41.72,41.72,0,0,1,8.4-13.62,42.67,42.67,0,0,1,13.44-9.72,41.85,41.85,0,0,1,18-3.72q12,0,20.82,5.16a33.38,33.38,0,0,1,13.14,13.44l-15.12,10.56a17.56,17.56,0,0,0-3.66-5.58A20,20,0,0,0,948.83,94a28.09,28.09,0,0,0-5.4-.54,20.32,20.32,0,0,0-9.84,2.28,21.66,21.66,0,0,0-7,5.88,24.44,24.44,0,0,0-4.08,8.16,33.07,33.07,0,0,0-1.32,9.24,30.53,30.53,0,0,0,1.56,9.72,25.9,25.9,0,0,0,4.5,8.28,21.74,21.74,0,0,0,7.08,5.7,20.26,20.26,0,0,0,9.3,2.1,23.93,23.93,0,0,0,5.46-.66,22.06,22.06,0,0,0,5.4-2,19.3,19.3,0,0,0,4.74-3.6,16.82,16.82,0,0,0,3.48-5.46l16.08,9.48a25,25,0,0,1-5.7,8.4,35.16,35.16,0,0,1-8.7,6.24,47.77,47.77,0,0,1-21.24,5.16,38.17,38.17,0,0,1-17-3.78,43,43,0,0,1-13.32-10,45.84,45.84,0,0,1-8.64-14.16A44.29,44.29,0,0,1,901.19,118.28Z"/><path class="cls-1" d="M1053.59,93.68h-25.92V161.6H1008V93.68H982V76.4h71.64Z"/></g><g class="cls-2"><path class="cls-1" d="M285.41,193.47a10.78,10.78,0,0,1,.72-3.83,10.41,10.41,0,0,1,2.1-3.4,10.67,10.67,0,0,1,3.36-2.43,10.46,10.46,0,0,1,4.5-.93,10.11,10.11,0,0,1,5.2,1.29,8.36,8.36,0,0,1,3.29,3.36l-3.78,2.64a4.43,4.43,0,0,0-.92-1.4,5,5,0,0,0-2.56-1.38,7,7,0,0,0-1.35-.13,5.08,5.08,0,0,0-2.46.57,5.42,5.42,0,0,0-1.74,1.47,6.11,6.11,0,0,0-1,2,8.27,8.27,0,0,0-.33,2.31,7.63,7.63,0,0,0,.39,2.43,6.46,6.46,0,0,0,1.12,2.07,5.42,5.42,0,0,0,1.77,1.42,5.09,5.09,0,0,0,2.33.53,6,6,0,0,0,1.36-.17,5.52,5.52,0,0,0,1.35-.51,4.85,4.85,0,0,0,1.19-.9,4.18,4.18,0,0,0,.87-1.36l4,2.37a6.28,6.28,0,0,1-1.43,2.1,8.76,8.76,0,0,1-2.17,1.56,11.94,11.94,0,0,1-5.31,1.29,9.57,9.57,0,0,1-4.25-.95,10.73,10.73,0,0,1-3.33-2.5,11.46,11.46,0,0,1-2.16-3.54A11.07,11.07,0,0,1,285.41,193.47Z"/><path class="cls-1" d="M346.22,196.65l10-13.65h3.66v21.3H355V191l-9.9,13.32h-3.81V183h5Z"/><path class="cls-1" d="M396.74,193.47a10.56,10.56,0,0,1,.72-3.83,10.22,10.22,0,0,1,2.09-3.4,10.6,10.6,0,0,1,3.37-2.43,10.46,10.46,0,0,1,4.5-.93,10.11,10.11,0,0,1,5.2,1.29,8.42,8.42,0,0,1,3.29,3.36l-3.78,2.64a4.6,4.6,0,0,0-.92-1.4,5.14,5.14,0,0,0-1.21-.9,5.21,5.21,0,0,0-1.35-.48,7.19,7.19,0,0,0-1.36-.13,5.11,5.11,0,0,0-2.46.57,5.42,5.42,0,0,0-1.74,1.47,5.91,5.91,0,0,0-1,2,8.1,8.1,0,0,0,.05,4.74,6.49,6.49,0,0,0,1.13,2.07,5.42,5.42,0,0,0,1.77,1.42,5.09,5.09,0,0,0,2.33.53,6,6,0,0,0,1.36-.17,5.52,5.52,0,0,0,1.35-.51,4.62,4.62,0,0,0,1.18-.9,4.2,4.2,0,0,0,.88-1.36l4,2.37a6.28,6.28,0,0,1-1.43,2.1,8.64,8.64,0,0,1-2.18,1.56,11.64,11.64,0,0,1-2.61,1,11.5,11.5,0,0,1-2.69.33,9.54,9.54,0,0,1-4.25-.95,10.73,10.73,0,0,1-3.33-2.5,11.46,11.46,0,0,1-2.16-3.54A11.07,11.07,0,0,1,396.74,193.47Z"/><path class="cls-1" d="M468.73,187.32h-6.48v17h-4.92v-17h-6.51V183h17.91Z"/><path class="cls-1" d="M520.09,200v4.32h-15V183h14.7v4.32H510v4.14h8.4v4H510V200Z"/><path class="cls-1" d="M573.88,204.3V191.55l-4.62,9.27h-2.64L562,191.55V204.3h-4.92V183h5.34l5.52,11.13L573.49,183h5.31v21.3Z"/><path class="cls-1" d="M621.94,196.65,632,183h3.66v21.3H630.7V191l-9.9,13.32H617V183h5Z"/><path class="cls-1" d="M714.67,183H730.6v4.32h-11v4.08h5.16a8,8,0,0,1,5.39,1.66,5.87,5.87,0,0,1,1.93,4.7,6.23,6.23,0,0,1-1.86,4.83A7.47,7.47,0,0,1,725,204.3H714.67Zm9.75,17.13a2.75,2.75,0,0,0,2-.65,2.34,2.34,0,0,0,.67-1.78,2.38,2.38,0,0,0-.66-1.73,2.65,2.65,0,0,0-2-.67h-4.8v4.83Z"/><path class="cls-1" d="M783.76,200v4.32h-15V183h14.7v4.32h-9.78v4.14h8.4v4h-8.4V200Z"/><path class="cls-1" d="M819.49,185.85a9.75,9.75,0,0,1,3.26-2.27,11,11,0,0,1,4.3-.76,8.23,8.23,0,0,1,5,1.38,4.76,4.76,0,0,1,1.86,4.08,5.54,5.54,0,0,1-.73,2.79,4.46,4.46,0,0,1-2.51,1.92,5.16,5.16,0,0,1,3,1.84,5.34,5.34,0,0,1,1,3.32,5.84,5.84,0,0,1-.6,2.68,5.73,5.73,0,0,1-1.66,2,7.6,7.6,0,0,1-2.52,1.23,11.3,11.3,0,0,1-3.14.42,11.81,11.81,0,0,1-4.26-.71,11.12,11.12,0,0,1-3.48-2.2l2.52-3.63a9.07,9.07,0,0,0,2.21,1.54,6.25,6.25,0,0,0,2.8.59,3.6,3.6,0,0,0,2.24-.68,2.37,2.37,0,0,0,.88-2,2.53,2.53,0,0,0-.82-1.92,3.79,3.79,0,0,0-2.66-.78h-2.58v-3.42h2.22a4.55,4.55,0,0,0,2.58-.6,2,2,0,0,0,.87-1.71,1.84,1.84,0,0,0-.63-1.49,3,3,0,0,0-2-.52,6.13,6.13,0,0,0-2.56.51,7.5,7.5,0,0,0-2.12,1.47Z"/><path class="cls-1" d="M871.63,183h17.91v21.3h-4.92v-17h-8v17h-5Z"/><path class="cls-1" d="M942.67,200v4.32h-15V183h14.7v4.32h-9.78v4.14H941v4h-8.4V200Z"/><path class="cls-1" d="M984.58,191.46h1.11L991.9,183h5.55l-7.65,10.29,8.34,11h-5.49l-6.51-8.37h-1.56v8.37h-4.92V183h4.92Z"/><path class="cls-1" d="M1038.61,196.65l10-13.65h3.66v21.3h-4.92V191l-9.9,13.32h-3.81V183h4.95Z"/></g></g></g></svg>